<?xml version="1.0" encoding="utf-8"?>
<svg version="1.1" xmlns:xlink="http://www.w3.org/1999/xlink" width="290px" height="89px" xmlns="http://www.w3.org/2000/svg">
  <g>
    <path d="M 80.0962867472901 85  L 79.9037132482867 85.0000002698309  C 79.4514469442108 87.3064526431951  77.4566617480334 89  75 89  C 72.5433382519666 89  70.5485530557892 87.3064526431951  70.0962867505562 85  L 69.9037132482867 85.0000002698309  C 69.4514469442108 87.3064526431951  67.4566617480334 89  65 89  C 62.5433382519666 89  60.5485530557892 87.3064526431951  60.0962867527943 85  L 59.9037132482867 85.0000002698309  C 59.4514469442108 87.3064526431951  57.4566617480334 89  55 89  C 52.5433382519666 89  50.5485530557892 87.3064526431951  50.0962867505563 85  L 49.9037132482867 85.0000002698309  C 49.4514469442108 87.3064526431951  47.4566617480333 89  45 89  C 42.5433382519667 89  40.5485530557892 87.3064526431951  40.0962867766768 85  L 39.9037132482867 85.0000002698309  C 39.4514469442108 87.3064526431951  37.4566617480333 89  35 89  C 32.5433382519667 89  30.5485530557892 87.3064526431951  30.0962867505649 85  L 29.9037115816448 85.0000087692768  C 29.4514420435888 87.3064568037579  27.4566587303729 89  25 89  C 22.5445735033532 89  20.5505591965356 87.3081553039595  20.1146467434996 85  L 19.9037132482867 85.0000002698309  C 19.4514469442108 87.3064526431951  17.4566617480333 89  15 89  C 12.5433382519667 89  10.5485530557892 87.3064526431951  10.0962867533159 85  L 9.90371324828675 85.0000002698309  C 9.45144694421079 87.3064526431951  7.45666174803333 89  5 89  C 2.2 89  0 86.8  0 84  C 0 83.6101686333486  0.0426442203744557 83.2319675086175  0.123614776589235 82.8697145478555  C 0.0430924419545704 82.5953372155894  0 82.3035448498794  0 82  L 0 3  C 0 1.32  1.31999999999999 0  3 0  L 290 0  L 290 82  C 290 82.3035448498794  289.956907558045 82.5953372155894  289.876385275165 82.8697145620946  C 289.957355779626 83.2319675086175  290 83.6101686333486  290 84  C 290 86.8  287.8 89  285 89  C 282.543338251967 89  280.548553055789 87.3064526431951  280.09628673023 85  L 279.903713248287 85.0000002698309  C 279.451446944211 87.3064526431951  277.456661748033 89  275 89  C 272.543338251967 89  270.548553055789 87.3064526431951  270.096286750556 85  L 269.903713248287 85.0000002698309  C 269.451446944211 87.3064526431951  267.456661748033 89  265 89  C 262.543338251967 89  260.548553055789 87.3064526431951  260.096286749866 85  L 259.903713248287 85.0000002698309  C 259.451446944211 87.3064526431951  257.456661748033 89  255 89  C 252.543338251967 89  250.548553055789 87.3064526431951  250.096286705158 85  L 249.903713248287 85.0000002698309  C 249.451446944211 87.3064526431951  247.456661748033 89  245 89  C 242.543338251967 89  240.548553055789 87.3064526431951  240.096286750556 85  L 239.903713248287 85.0000002698309  C 239.451446944211 87.3064526431951  237.456661748033 89  235 89  C 232.543338251967 89  230.548553055789 87.3064526431951  230.096286750556 85  L 229.903713248287 85.0000002698309  C 229.451446944211 87.3064526431951  227.456661748033 89  225 89  C 222.543338251967 89  220.548553055789 87.3064526431951  220.096286750556 85  L 219.903713248287 85.0000002698309  C 219.451446944211 87.3064526431951  217.456661748033 89  215 89  C 212.543338251967 89  210.548553055789 87.3064526431951  210.096286750556 85  L 209.903713248287 85.0000002698309  C 209.451446944211 87.3064526431951  207.456661748033 89  205 89  C 202.543338251967 89  200.548553055789 87.3064526431951  200.096286752468 85  L 199.903713248287 85.0000002698309  C 199.451446944211 87.3064526431951  197.456661748033 89  195 89  C 192.543338251967 89  190.548553055789 87.3064526431951  190.096286705158 85  L 189.903713248287 85.0000002698309  C 189.451446944211 87.3064526431951  187.456661748033 89  185 89  C 182.543338251967 89  180.548553055789 87.3064526431951  180.096286978418 85  L 179.903713248287 85.0000002698309  C 179.451446944211 87.3064526431951  177.456661748033 89  175 89  C 172.543338251967 89  170.548553055789 87.3064526431951  170.096286752794 85  L 169.903713248287 85.0000002698309  C 169.451446944211 87.3064526431951  167.456661748033 89  165 89  C 162.543338251967 89  160.548553055789 87.3064526431951  160.096286750556 85  L 159.903713248287 85.0000002698309  C 159.451446944211 87.3064526431951  157.456661748033 89  155 89  C 152.543338251967 89  150.548553055789 87.3064526431951  150.096286750556 85  L 149.903713248287 85.0000002698309  C 149.451446944211 87.3064526431951  147.456661748033 89  145 89  C 142.543338251967 89  140.548553055789 87.3064526431951  140.096286705158 85  L 139.903713248287 85.0000002698309  C 139.451446944211 87.3064526431951  137.456661748033 89  135 89  C 132.543338251967 89  130.548553055789 87.3064526431951  130.096286978418 85  L 129.903713248287 85.0000002698309  C 129.451446944211 87.3064526431951  127.456661748033 89  125 89  C 122.543338251967 89  120.548553055789 87.3064526431951  120.096286750556 85  L 119.903713248287 85.0000002698309  C 119.451446944211 87.3064526431951  117.456661748033 89  115 89  C 112.543338251967 89  110.548553055789 87.3064526431951  110.096286750556 85  L 109.903713248287 85.0000002698309  C 109.451446944211 87.3064526431951  107.456661748033 89  105 89  C 102.543338251967 89  100.548553055789 87.3064526431951  100.096286749469 85  L 99.9037132482867 85.0000002698309  C 99.4514469442108 87.3064526431951  97.4566617480334 89  95 89  C 92.5433382519666 89  90.5485530557892 87.3064526431951  90.0962866255701 85  L 89.9037132482867 85.0000002698309  C 89.4514469442108 87.3064526431951  87.4566617480334 89  85 89  C 82.5433382519666 89  80.5485530557892 87.3064526431951  80.0962867472901 85  Z " fill-rule="nonzero" fill="#565656" stroke="none" />
  </g>
</svg>