<?xml version="1.0" encoding="utf-8"?>
<svg version="1.1" xmlns:xlink="http://www.w3.org/1999/xlink" width="135px" height="50px" xmlns="http://www.w3.org/2000/svg">
  <g transform="matrix(1 0 0 1 -34 0 )">
    <path d="M 34 0  L 169 0  L 169 50  L 34 50  L 34 0  " fill-rule="nonzero" fill="#cccccc" stroke="none" />
    <path d="M 38 4  L 165 4  L 165 46  L 38 46  L 38 4  " fill-rule="nonzero" fill="#ffffff" stroke="none" />
    <path d="M 107.95 15  C 105.85 15  104.2 13.35  104.2 11.25  C 104.2 9.15  105.85 7.5  107.95 7.5  C 110.05 7.5  111.7 9.15  111.7 11.25  C 111.7 13.35  110.05 15  107.95 15  " fill-rule="nonzero" fill="#cccccc" stroke="none" />
    <path d="M 40 45  L 40 23.55  L 71 13.8  L 114.4 36.3333333333333  L 139.2 19.65  L 164 36.3333333333333  L 164 45  L 40 45  " fill-rule="nonzero" fill="#169bd5" stroke="none" />
  </g>
</svg>