<?xml version="1.0" encoding="utf-8"?>
<svg version="1.1" xmlns:xlink="http://www.w3.org/1999/xlink" width="12px" height="12px" xmlns="http://www.w3.org/2000/svg">
  <g transform="matrix(1 0 0 1 -23 -19 )">
    <path d="M 29 20  C 31.8 20  34 22.2  34 25  C 34 27.8  31.8 30  29 30  C 26.2 30  24 27.8  24 25  C 24 22.2  26.2 20  29 20  Z " fill-rule="nonzero" fill="#ffffff" stroke="none" fill-opacity="0" />
    <path d="M 29 20  C 31.8 20  34 22.2  34 25  C 34 27.8  31.8 30  29 30  C 26.2 30  24 27.8  24 25  C 24 22.2  26.2 20  29 20  Z " stroke-width="2" stroke="#cccccc" fill="none" />
  </g>
</svg>