<?xml version="1.0" encoding="utf-8"?>
<svg version="1.1" xmlns:xlink="http://www.w3.org/1999/xlink" width="22px" height="22px" xmlns="http://www.w3.org/2000/svg">
  <g transform="matrix(1 0 0 1 -15 -33 )">
    <path d="M 15 33  L 37 33  L 37 55  L 15 55  L 15 33  " fill-rule="nonzero" fill="#cccccc" stroke="none" />
    <path d="M 17 35  L 35 35  L 35 53  L 17 53  L 17 35  " fill-rule="nonzero" fill="#ffffff" stroke="none" />
    <path d="M 28.09 39.6  C 27.166 39.6  26.44 38.874  26.44 37.95  C 26.44 37.026  27.166 36.3  28.09 36.3  C 29.014 36.3  29.74 37.026  29.74 37.95  C 29.74 38.874  29.014 39.6  28.09 39.6  " fill-rule="nonzero" fill="#cccccc" stroke="none" />
    <path d="M 18 53  L 18 43.65  L 22.25 39.4  L 28.2 42.8  L 31.6 41.95  L 35 42.8  L 35 53  L 18 53  " fill-rule="nonzero" fill="#169bd5" stroke="none" />
  </g>
</svg>