<?xml version="1.0" encoding="utf-8"?>
<svg version="1.1" xmlns:xlink="http://www.w3.org/1999/xlink" width="50px" height="50px" xmlns="http://www.w3.org/2000/svg">
  <g transform="matrix(1 0 0 1 -138 -63 )">
    <path d="M 138 63  L 188 63  L 188 113  L 138 113  L 138 63  " fill-rule="nonzero" fill="#cccccc" stroke="none" />
    <path d="M 142 67  L 184 67  L 184 109  L 142 109  L 142 67  " fill-rule="nonzero" fill="#ffffff" stroke="none" />
    <path d="M 167.75 78  C 165.65 78  164 76.35  164 74.25  C 164 72.15  165.65 70.5  167.75 70.5  C 169.85 70.5  171.5 72.15  171.5 74.25  C 171.5 76.35  169.85 78  167.75 78  " fill-rule="nonzero" fill="#cccccc" stroke="none" />
    <path d="M 144 108  L 144 86.55  L 153.75 76.8  L 167.4 84.6  L 175.2 82.65  L 183 84.6  L 183 108  L 144 108  " fill-rule="nonzero" fill="#169bd5" stroke="none" />
  </g>
</svg>