<?xml version="1.0" encoding="utf-8"?>
<svg version="1.1" xmlns:xlink="http://www.w3.org/1999/xlink" width="125px" height="36px" xmlns="http://www.w3.org/2000/svg">
  <defs>
    <linearGradient gradientUnits="userSpaceOnUse" x1="62.5" y1="0" x2="62.5" y2="36" id="LinearGradient17">
      <stop id="Stop18" stop-color="#ff512f" offset="0" />
      <stop id="Stop19" stop-color="#f3091a" offset="1" />
    </linearGradient>
  </defs>
  <g>
    <path d="M 0.5 3  A 2.5 2.5 0 0 1 3 0.5 L 122 0.5  A 2.5 2.5 0 0 1 124.5 3 L 124.5 33  A 2.5 2.5 0 0 1 122 35.5 L 3 35.5  A 2.5 2.5 0 0 1 0.5 33 L 0.5 3  Z " fill-rule="nonzero" fill="#f52f3e" stroke="none" />
    <path d="M 0.5 3  A 2.5 2.5 0 0 1 3 0.5 L 122 0.5  A 2.5 2.5 0 0 1 124.5 3 L 124.5 33  A 2.5 2.5 0 0 1 122 35.5 L 3 35.5  A 2.5 2.5 0 0 1 0.5 33 L 0.5 3  Z " stroke-width="1" stroke="url(#LinearGradient17)" fill="none" />
  </g>
</svg>