<?xml version="1.0" encoding="utf-8"?>
<svg version="1.1" xmlns:xlink="http://www.w3.org/1999/xlink" width="26px" height="26px" xmlns="http://www.w3.org/2000/svg">
  <g transform="matrix(1 0 0 1 -71 0 )">
    <path d="M 71 0  L 97 0  L 97 26  L 71 26  L 71 0  " fill-rule="nonzero" fill="#cccccc" stroke="none" />
    <path d="M 73 2  L 95 2  L 95 24  L 73 24  L 73 2  " fill-rule="nonzero" fill="#ffffff" stroke="none" />
    <path d="M 86.47 7.8  C 85.378 7.8  84.52 6.942  84.52 5.85  C 84.52 4.758  85.378 3.9  86.47 3.9  C 87.562 3.9  88.42 4.758  88.42 5.85  C 88.42 6.942  87.562 7.8  86.47 7.8  " fill-rule="nonzero" fill="#cccccc" stroke="none" />
    <path d="M 74 24  L 74 12.45  L 79.25 7.2  L 86.6 11.4  L 90.8 10.35  L 95 11.4  L 95 24  L 74 24  " fill-rule="nonzero" fill="#169bd5" stroke="none" />
  </g>
</svg>