<?xml version="1.0" encoding="utf-8"?>
<svg version="1.1" xmlns:xlink="http://www.w3.org/1999/xlink" width="74px" height="74px" xmlns="http://www.w3.org/2000/svg">
  <defs>
    <mask fill="white" id="clip20">
      <path d="M 72.8630091313028 40.1376067389158  C 74.6200689050956 20.0543216253862  60.2208918524451 2.89405064248997  40.1376067389156 1.13699086869718  C 20.054321625386 -0.62006890509561  2.89405064249003 13.7791081475548  1.13699086869719 33.8623932610843  C -0.620068905095565 53.9456783746139  13.7791081475548 71.1059493575101  33.8623932610843 72.8630091313029  C 53.9456783746138 74.6200689050957  71.1059493575099 60.2208918524453  72.8630091313028 40.1376067389158  Z " fill-rule="evenodd" />
    </mask>
  </defs>
  <g transform="matrix(1 0 0 1 -189 -58 )">
    <path d="M 72.8630091313028 40.1376067389158  C 74.6200689050956 20.0543216253862  60.2208918524451 2.89405064248997  40.1376067389156 1.13699086869718  C 20.054321625386 -0.62006890509561  2.89405064249003 13.7791081475548  1.13699086869719 33.8623932610843  C -0.620068905095565 53.9456783746139  13.7791081475548 71.1059493575101  33.8623932610843 72.8630091313029  C 53.9456783746138 74.6200689050957  71.1059493575099 60.2208918524453  72.8630091313028 40.1376067389158  Z " fill-rule="nonzero" fill="#ffffff" stroke="none" fill-opacity="0" transform="matrix(1 0 0 1 189 58 )" />
    <path d="M 72.8630091313028 40.1376067389158  C 74.6200689050956 20.0543216253862  60.2208918524451 2.89405064248997  40.1376067389156 1.13699086869718  C 20.054321625386 -0.62006890509561  2.89405064249003 13.7791081475548  1.13699086869719 33.8623932610843  C -0.620068905095565 53.9456783746139  13.7791081475548 71.1059493575101  33.8623932610843 72.8630091313029  C 53.9456783746138 74.6200689050957  71.1059493575099 60.2208918524453  72.8630091313028 40.1376067389158  Z " stroke-width="4" stroke="#666666" fill="none" transform="matrix(1 0 0 1 189 58 )" mask="url(#clip20)" />
  </g>
</svg>