<?xml version="1.0" encoding="utf-8"?>
<svg version="1.1" xmlns:xlink="http://www.w3.org/1999/xlink" width="16px" height="16px" xmlns="http://www.w3.org/2000/svg">
  <g transform="matrix(1 0 0 1 -2 -7 )">
    <path d="M 2 7  L 18 7  L 18 23  L 2 23  L 2 7  " fill-rule="nonzero" fill="#cccccc" stroke="none" />
    <path d="M 3 8  L 17 8  L 17 22  L 3 22  L 3 8  " fill-rule="nonzero" fill="#ffffff" stroke="none" />
    <path d="M 11.52 11.8  C 10.848 11.8  10.32 11.272  10.32 10.6  C 10.32 9.928  10.848 9.4  11.52 9.4  C 12.192 9.4  12.72 9.928  12.72 10.6  C 12.72 11.272  12.192 11.8  11.52 11.8  " fill-rule="nonzero" fill="#cccccc" stroke="none" />
    <path d="M 4 22  L 4 14.85  L 7.25 11.6  L 11.8 14.2  L 14.4 13.55  L 17 14.2  L 17 22  L 4 22  " fill-rule="nonzero" fill="#169bd5" stroke="none" />
  </g>
</svg>