<?xml version="1.0" encoding="utf-8"?>
<svg version="1.1" xmlns:xlink="http://www.w3.org/1999/xlink" width="16px" height="16px" xmlns="http://www.w3.org/2000/svg">
  <g transform="matrix(1 0 0 1 0 -3 )">
    <path d="M 8 3  C 12.48 3  16 6.52  16 11  C 16 15.48  12.48 19  8 19  C 3.52 19  0 15.48  0 11  C 0 6.52  3.52 3  8 3  Z " fill-rule="nonzero" fill="#ffffff" stroke="none" />
    <path d="M 8 3.5  C 12.2 3.5  15.5 6.8  15.5 11  C 15.5 15.2  12.2 18.5  8 18.5  C 3.8 18.5  0.5 15.2  0.5 11  C 0.5 6.8  3.8 3.5  8 3.5  Z " stroke-width="1" stroke="#888888" fill="none" />
  </g>
</svg>