<?xml version="1.0" encoding="utf-8"?>
<svg version="1.1" xmlns:xlink="http://www.w3.org/1999/xlink" width="30px" height="30px" xmlns="http://www.w3.org/2000/svg">
  <g transform="matrix(1 0 0 1 -13 0 )">
    <path d="M 13 0  L 43 0  L 43 30  L 13 30  L 13 0  " fill-rule="nonzero" fill="#cccccc" stroke="none" />
    <path d="M 15 2  L 41 2  L 41 28  L 15 28  L 15 2  " fill-rule="nonzero" fill="#ffffff" stroke="none" />
    <path d="M 30.85 9  C 29.59 9  28.6 8.01  28.6 6.75  C 28.6 5.49  29.59 4.5  30.85 4.5  C 32.11 4.5  33.1 5.49  33.1 6.75  C 33.1 8.01  32.11 9  30.85 9  " fill-rule="nonzero" fill="#cccccc" stroke="none" />
    <path d="M 16 27  L 16 13.8  L 22 7.8  L 30.4 12.6  L 35.2 11.4  L 40 12.6  L 40 27  L 16 27  " fill-rule="nonzero" fill="#169bd5" stroke="none" />
  </g>
</svg>