<?xml version="1.0" encoding="utf-8"?>
<svg version="1.1" xmlns:xlink="http://www.w3.org/1999/xlink" width="191px" height="82px" xmlns="http://www.w3.org/2000/svg">
  <defs>
    <filter x="173px" y="21px" width="191px" height="82px" filterUnits="userSpaceOnUse" id="filter21">
      <feOffset dx="5" dy="5" in="SourceAlpha" result="shadowOffsetInner" />
      <feGaussianBlur stdDeviation="2.5" in="shadowOffsetInner" result="shadowGaussian" />
      <feComposite in2="shadowGaussian" operator="atop" in="SourceAlpha" result="shadowComposite" />
      <feColorMatrix type="matrix" values="0 0 0 0 0.6  0 0 0 0 0.6  0 0 0 0 0.6  0 0 0 0.349019607843137 0  " in="shadowComposite" />
    </filter>
    <g id="widget22">
      <path d="M 173 75.9  C 173 75.9  173 27  173 27  C 173 23.6862915010152  175.686291501015 21  179 21  C 179 21  348 21  348 21  C 351.313708498985 21  354 23.6862915010152  354 27  C 354 27  354 75.9  354 75.9  C 354 79.2137084989847  351.313708498985 81.9  348 81.9  C 348 81.9  333.13975 81.9  333.13975 81.9  C 333.13975 81.9  304.617166666667 92.2000000000001  304.617166666667 92.2000000000001  C 304.617166666667 92.2000000000001  309.006416666667 81.9  309.006416666667 81.9  C 309.006416666667 81.9  179 81.9  179 81.9  C 175.686291501015 81.9  173 79.2137084989847  173 75.9  Z " fill-rule="nonzero" fill="#f52f3e" stroke="none" />
    </g>
  </defs>
  <g transform="matrix(1 0 0 1 -173 -21 )">
    <use xlink:href="#widget22" filter="url(#filter21)" />
    <use xlink:href="#widget22" />
  </g>
</svg>