<?xml version="1.0" encoding="utf-8"?>
<svg version="1.1" xmlns:xlink="http://www.w3.org/1999/xlink" width="100px" height="30px" xmlns="http://www.w3.org/2000/svg">
  <defs>
    <linearGradient gradientUnits="userSpaceOnUse" x1="698" y1="337" x2="698" y2="367" id="LinearGradient11">
      <stop id="Stop12" stop-color="#ff512f" offset="0" />
      <stop id="Stop13" stop-color="#f3091a" offset="1" />
    </linearGradient>
  </defs>
  <g transform="matrix(1 0 0 1 -648 -337 )">
    <path d="M 736.128302565584 337.5  C 736.128302565584 337.5  738.723702232064 337.889309949972  738.723702232064 337.889309949972  C 738.723702232064 337.889309949972  747.451964118679 352  747.451964118679 352  C 747.451964118679 352  738.723702232064 366.110690050028  738.723702232064 366.110690050028  C 738.723702232064 366.110690050028  736.128302565584 366.5  736.128302565584 366.5  C 736.128302565584 366.5  651 366.5  651 366.5  C 649.6 366.5  648.5 365.4  648.5 364  C 648.5 364  648.5 340  648.5 340  C 648.5 338.6  649.6 337.5  651 337.5  C 651 337.5  736.128302565584 337.5  736.128302565584 337.5  Z " fill-rule="nonzero" fill="#fff4f6" stroke="none" />
    <path d="M 736.128302565584 337.5  C 736.128302565584 337.5  738.723702232064 337.889309949972  738.723702232064 337.889309949972  C 738.723702232064 337.889309949972  747.451964118679 352  747.451964118679 352  C 747.451964118679 352  738.723702232064 366.110690050028  738.723702232064 366.110690050028  C 738.723702232064 366.110690050028  736.128302565584 366.5  736.128302565584 366.5  C 736.128302565584 366.5  651 366.5  651 366.5  C 649.6 366.5  648.5 365.4  648.5 364  C 648.5 364  648.5 340  648.5 340  C 648.5 338.6  649.6 337.5  651 337.5  C 651 337.5  736.128302565584 337.5  736.128302565584 337.5  Z " stroke-width="1" stroke="url(#LinearGradient11)" fill="none" />
  </g>
</svg>