<?xml version="1.0" encoding="utf-8"?>
<svg version="1.1" xmlns:xlink="http://www.w3.org/1999/xlink" width="50px" height="50px" xmlns="http://www.w3.org/2000/svg">
  <g>
    <path d="M 0 0  L 50 0  L 50 50  L 0 50  L 0 0  " fill-rule="nonzero" fill="#cccccc" stroke="none" />
    <path d="M 4 4  L 46 4  L 46 46  L 4 46  L 4 4  " fill-rule="nonzero" fill="#ffffff" stroke="none" />
    <path d="M 29.75 15  C 27.65 15  26 13.35  26 11.25  C 26 9.15  27.65 7.5  29.75 7.5  C 31.85 7.5  33.5 9.15  33.5 11.25  C 33.5 13.35  31.85 15  29.75 15  " fill-rule="nonzero" fill="#cccccc" stroke="none" />
    <path d="M 6 45  L 6 23.55  L 15.75 13.8  L 29.4 21.6  L 37.2 19.65  L 45 21.6  L 45 45  L 6 45  " fill-rule="nonzero" fill="#169bd5" stroke="none" />
    <path d="M 0.5 49.5  L 0.5 0.5  L 49.5 0.5  L 49.5 49.5  L 0.5 49.5  Z " stroke-width="1" stroke="#dddddd" fill="none" />
  </g>
</svg>