<?xml version="1.0" encoding="utf-8"?>
<svg version="1.1" xmlns:xlink="http://www.w3.org/1999/xlink" width="80px" height="80px" xmlns="http://www.w3.org/2000/svg">
  <g>
    <path d="M 0 0  L 80 0  L 80 80  L 0 80  L 0 0  " fill-rule="nonzero" fill="#cccccc" stroke="none" />
    <path d="M 6 6  L 74 6  L 74 74  L 6 74  L 6 6  " fill-rule="nonzero" fill="#ffffff" stroke="none" />
    <path d="M 47.6 24  C 44.24 24  41.6 21.36  41.6 18  C 41.6 14.64  44.24 12  47.6 12  C 50.96 12  53.6 14.64  53.6 18  C 53.6 21.36  50.96 24  47.6 24  " fill-rule="nonzero" fill="#cccccc" stroke="none" />
    <path d="M 8 72  L 8 36.8  L 24 20.8  L 46.4 33.6  L 59.2 30.4  L 72 33.6  L 72 72  L 8 72  " fill-rule="nonzero" fill="#169bd5" stroke="none" />
    <path d="M 0.5 79.5  L 0.5 0.5  L 79.5 0.5  L 79.5 79.5  L 0.5 79.5  Z " stroke-width="1" stroke="#eeeeee" fill="none" />
  </g>
</svg>