<?xml version="1.0" encoding="utf-8"?>
<svg version="1.1" xmlns:xlink="http://www.w3.org/1999/xlink" width="432px" height="432px" xmlns="http://www.w3.org/2000/svg">
  <g>
    <path d="M 0 0  L 432 0  L 432 432  L 0 432  L 0 0  " fill-rule="nonzero" fill="#cccccc" stroke="none" />
    <path d="M 30 30  L 402 30  L 402 402  L 30 402  L 30 30  " fill-rule="nonzero" fill="#ffffff" stroke="none" />
    <path d="M 257.04 129.6  C 238.896 129.6  224.64 115.344  224.64 97.2  C 224.64 79.056  238.896 64.8  257.04 64.8  C 275.184 64.8  289.44 79.056  289.44 97.2  C 289.44 115.344  275.184 129.6  257.04 129.6  " fill-rule="nonzero" fill="#cccccc" stroke="none" />
    <path d="M 41 391  L 41 198.5  L 128.5 111  L 251 181  L 321 163.5  L 391 181  L 391 391  L 41 391  " fill-rule="nonzero" fill="#169bd5" stroke="none" />
    <path d="M 0.5 431.5  L 0.5 0.5  L 431.5 0.5  L 431.5 431.5  L 0.5 431.5  Z " stroke-width="1" stroke="#eeeeee" fill="none" />
  </g>
</svg>