<?xml version="1.0" encoding="utf-8"?>
<svg version="1.1" xmlns:xlink="http://www.w3.org/1999/xlink" width="134px" height="6px" xmlns="http://www.w3.org/2000/svg">
  <g transform="matrix(1 0 0 1 -520 -258 )">
    <path d="M 47 0  C 43.64 0  41 2.6400000000001  41 6  L 53 6  C 53 2.6400000000001  50.36 0  47 0  Z M 20 6  L 32 6  C 32 2.6400000000001  29.36 0  26 0  C 22.64 0  20 2.6400000000001  20 6  Z M 12 6  C 12 2.6400000000001  9.36000000000001 0  6 0  C 2.63999999999999 0  0 2.6400000000001  0 6  L 12 6  Z M 73 6  C 73 2.6400000000001  70.36 0  67 0  C 63.64 0  61 2.6400000000001  61 6  L 73 6  Z M 128 0  C 124.64 0  122 2.6400000000001  122 6  L 134 6  C 134 2.6400000000001  131.36 0  128 0  Z M 108 0  C 104.64 0  102 2.6400000000001  102 6  L 114 6  C 114 2.6400000000001  111.36 0  108 0  Z M 81 6  L 93 6  C 93 2.6400000000001  90.36 0  87 0  C 83.64 0  81 2.6400000000001  81 6  Z " fill-rule="nonzero" fill="#ffffff" stroke="none" transform="matrix(1 0 0 1 520 258 )" />
  </g>
</svg>